<svg xmlns="http://www.w3.org/2000/svg" viewBox="0 0 512 512" width="512" height="512">
  <defs>
    <linearGradient id="grad1" x1="0%" y1="0%" x2="100%" y2="100%">
      <stop offset="0%" style="stop-color:#1976D2;stop-opacity:1" />
      <stop offset="100%" style="stop-color:#1565C0;stop-opacity:1" />
    </linearGradient>
  </defs>

  <!-- Background -->
  <rect width="512" height="512" fill="url(#grad1)" rx="100"/>

  <!-- Warehouse building -->
  <g fill="#FFFFFF">
    <!-- Roof -->
    <path d="M 256 100 L 140 170 L 140 200 L 372 200 L 372 170 Z"/>

    <!-- Main building -->
    <rect x="140" y="200" width="232" height="220" fill="#FFFFFF"/>

    <!-- Shelves/Racks -->
    <rect x="165" y="230" width="60" height="70" fill="#1976D2" opacity="0.3"/>
    <rect x="165" y="320" width="60" height="70" fill="#1976D2" opacity="0.3"/>

    <rect x="287" y="230" width="60" height="70" fill="#1976D2" opacity="0.3"/>
    <rect x="287" y="320" width="60" height="70" fill="#1976D2" opacity="0.3"/>

    <!-- Boxes on shelves -->
    <rect x="170" y="240" width="20" height="20" fill="#FF9800"/>
    <rect x="200" y="240" width="20" height="20" fill="#4CAF50"/>
    <rect x="170" y="330" width="20" height="20" fill="#F44336"/>

    <rect x="292" y="240" width="20" height="20" fill="#9C27B0"/>
    <rect x="322" y="240" width="20" height="20" fill="#FF5722"/>
    <rect x="292" y="330" width="20" height="20" fill="#2196F3"/>

    <!-- Door -->
    <rect x="236" y="340" width="40" height="80" fill="#1565C0"/>
    <circle cx="266" cy="380" r="3" fill="#FFD700"/>
  </g>
</svg>
